<?xml version="1.0" standalone="no"?>
<!DOCTYPE svg PUBLIC "-//W3C//DTD SVG 20010904//EN"
 "http://www.w3.org/TR/2001/REC-SVG-20010904/DTD/svg10.dtd">
<svg version="1.0" xmlns="http://www.w3.org/2000/svg"
 width="500.000000pt" height="500.000000pt" viewBox="0 0 500.000000 500.000000"
 preserveAspectRatio="xMidYMid meet">

<g transform="translate(0.000000,500.000000) scale(0.100000,-0.100000)"
fill="#000000" stroke="none">
<path d="M1170 4699 c-399 -34 -749 -340 -852 -745 l-23 -89 0 -1370 0 -1370
27 -98 c96 -346 358 -610 703 -704 l100 -28 1330 -3 c1388 -3 1403 -3 1550 40
304 88 549 323 652 623 54 159 53 133 53 1545 0 1443 2 1397 -63 1569 -119
315 -390 546 -727 622 -65 14 -2589 22 -2750 8z m1397 -859 c21 -63 72 -184
114 -270 42 -85 76 -156 75 -157 -1 -1 -37 14 -79 33 -43 20 -85 33 -93 30
-25 -10 -17 -221 22 -521 36 -284 114 -552 221 -764 24 -46 43 -85 43 -87 0
-2 -60 -4 -134 -4 -119 0 -134 2 -139 18 -3 9 -18 49 -32 87 -15 39 -35 97
-44 129 l-17 59 -50 -144 -50 -144 -138 -3 c-76 -1 -136 1 -134 5 2 4 24 49
49 98 125 244 213 592 238 945 20 275 20 297 6 316 -12 17 -17 16 -94 -19 -44
-20 -81 -33 -81 -30 0 4 33 74 74 157 72 145 127 294 162 441 l17 69 14 -64
c7 -36 30 -117 50 -180z m-1080 -549 c48 -33 124 -89 169 -125 85 -68 287
-256 281 -262 -1 -2 -36 5 -77 16 -99 24 -160 34 -160 24 0 -4 19 -53 41 -108
75 -182 249 -689 249 -725 0 -8 -32 -11 -112 -9 -112 3 -113 3 -116 28 -12
108 -101 475 -161 663 -55 173 -103 300 -167 440 -29 64 -49 117 -44 117 5 0
48 -27 97 -59z m2130 47 c-3 -7 -31 -69 -62 -137 -111 -247 -251 -709 -301
-998 l-17 -103 -114 0 c-74 0 -113 4 -113 11 0 21 153 468 222 647 39 101 68
186 65 189 -5 5 -186 -31 -225 -44 -59 -20 272 270 426 374 107 73 129 84 119
61z m-329 -1340 l-3 -43 -782 -3 -783 -2 0 45 0 45 786 0 785 0 -3 -42z m-80
-135 l3 -43 -710 0 -711 0 0 38 c0 21 3 42 7 45 3 4 322 6 707 5 l701 -3 3
-42z m77 -138 l0 -40 -782 -3 -783 -2 0 45 0 45 783 -2 782 -3 0 -40z m-1224
-129 c-26 -28 -134 -83 -180 -92 -30 -6 -31 -6 -31 32 0 22 -3 49 -6 62 -6 22
-6 22 117 22 l122 0 -22 -24z m709 -16 c-38 -48 -70 -135 -70 -190 l0 -40
-193 0 -192 0 -13 66 c-14 74 -42 136 -80 177 l-26 27 303 0 303 0 -32 -40z
m390 18 c0 -13 -3 -40 -7 -61 -6 -37 -8 -39 -35 -33 -42 8 -132 55 -170 87
l-33 28 123 1 c120 0 122 0 122 -22z m-350 -378 l0 -60 -307 2 -308 3 -3 58
-3 57 311 0 310 0 0 -60z m-115 -215 l0 -90 -192 -3 -193 -2 0 95 0 95 193 -2
192 -3 0 -90z"/>
</g>
</svg>
